<svg width="40" height="40" viewBox="0 0 40 40" fill="none" xmlns="http://www.w3.org/2000/svg">
<circle cx="20" cy="20" r="20" fill="#F1F1E7"/>
<path d="M24.3267 6.07323C23.33 6.29298 22.2136 6.91316 21.5284 7.62125C20.4838 8.70535 19.9424 10.0092 19.9424 11.44V11.777L20.4838 11.7477C21.5284 11.6891 22.2519 11.357 23.0713 10.5464C24.274 9.35972 24.8729 8.0461 24.8777 6.57133V5.99998L24.7483 6.00486C24.6717 6.00486 24.4848 6.03904 24.3267 6.07323Z" fill="#3F4222"/>
<path d="M23.5601 12.1286C23.0235 12.2262 22.4245 12.4167 21.4471 12.7976C20.5702 13.1346 20.5271 13.1492 20.1102 13.1492C19.7125 13.1492 19.6358 13.1346 19.1519 12.9392C17.4413 12.2507 16.7274 12.0749 15.7738 12.1188C14.9161 12.1579 14.3795 12.3141 13.5026 12.7781C11.7777 13.6815 10.5223 15.5665 10.115 17.847C9.96167 18.6967 9.96167 20.2838 10.115 21.2849C10.551 24.166 11.5429 26.5393 13.2439 28.7906C14.5712 30.5437 15.6732 31.1981 16.8855 30.949C17.2353 30.8806 17.5036 30.7927 18.3277 30.4851C20.1294 29.8112 20.781 29.821 22.736 30.5583C23.5506 30.866 23.9387 30.9539 24.5041 30.9539C25.817 30.9539 26.6747 30.2946 28.1025 28.1753C28.874 27.0277 29.5017 25.8166 29.8563 24.7911L30 24.3663L29.679 24.1856C28.5434 23.541 27.7959 22.7987 27.3071 21.8318C26.6986 20.6305 26.5405 19.0629 26.8951 17.6956C27.0149 17.2219 27.2496 16.6994 27.5323 16.2648C27.815 15.8302 28.4859 15.1465 28.9554 14.8095C29.2621 14.5898 29.3244 14.5214 29.2908 14.4579C29.0992 14.1015 28.4763 13.4569 28.0163 13.1297C27.3311 12.6511 26.4303 12.2897 25.5295 12.1286C25.0216 12.0407 24.0297 12.0407 23.5601 12.1286Z" fill="#3F4222"/>
</svg>
