<svg width="40" height="40" viewBox="0 0 40 40" fill="none" xmlns="http://www.w3.org/2000/svg">
<circle cx="20" cy="20" r="20" fill="#F1F1E7"/>
<path d="M21.8684 5.05406C20.2444 5.31798 19.1053 5.89273 18.1692 6.91908C17.3797 7.78708 16.8891 8.8017 16.6128 10.133C16.5056 10.6374 16.4944 10.9424 16.4718 13.3118L16.4492 15.9392H14.2218H12V18.6077V21.2762L14.2162 21.288L16.4267 21.3056L16.4436 28.1499L16.4549 35H19.1053H21.7556V28.1381V21.2762H23.9549C25.1673 21.2762 26.1541 21.2704 26.1541 21.2586C26.3064 20.1912 26.8083 16.0155 26.7914 15.9803C26.7801 15.9568 25.641 15.9392 24.2594 15.9392H21.75L21.7669 13.7516C21.7838 11.6168 21.7895 11.564 21.9192 11.2239C22.1842 10.5377 22.7368 10.1272 23.5714 10.0157C23.797 9.9864 24.6598 9.95708 25.4944 9.95708H27L26.9887 7.56421L26.9718 5.17722L26.2387 5.10684C25.0376 4.99541 22.4323 4.96022 21.8684 5.05406Z" fill="#3F4222"/>
</svg>
