<svg width="40" height="40" viewBox="0 0 40 40" fill="none" xmlns="http://www.w3.org/2000/svg">
<circle cx="20" cy="20" r="20" fill="#F1F1E7"/>
<path d="M19.0879 10.0215C17.1572 10.2093 15.375 10.9216 13.8116 12.1269C13.0495 12.7139 12.0607 13.8174 11.4901 14.7175C11.2438 15.1049 10.7631 16.0911 10.5911 16.5607C10.3996 17.0851 10.1925 17.8912 10.0909 18.5134C9.96971 19.2765 9.96971 20.7244 10.0909 21.4875C10.2667 22.5676 10.5442 23.4364 11.0171 24.403C11.5331 25.4557 12.0685 26.2031 12.9283 27.0679C13.7921 27.9289 14.5386 28.465 15.5899 28.9816C16.5553 29.4551 17.4229 29.7329 18.5016 29.909C19.2638 30.0303 20.7099 30.0303 21.472 29.909C22.5507 29.7329 23.4183 29.4551 24.3837 28.9816C25.4351 28.465 26.1815 27.9289 27.0453 27.0679C27.9051 26.2031 28.4406 25.4557 28.9565 24.403C29.3004 23.7025 29.4724 23.2446 29.66 22.5402C29.9179 21.5502 29.9609 21.1666 29.9805 19.5387L30 18.083H24.9934H19.9868V20.0005V21.918H22.9337H25.8806L25.7673 22.2193C25.5171 22.8689 25.0872 23.5733 24.6299 24.0899C24.0593 24.7317 23.4535 25.1935 22.7031 25.5574C21.7964 25.9996 21.2062 26.1405 20.1822 26.1718C19.5608 26.1914 19.3927 26.1796 18.9745 26.1092C16.3677 25.6631 14.3353 23.636 13.8898 21.0414C13.7843 20.4153 13.7843 19.5857 13.8898 18.9595C14.3353 16.365 16.3677 14.3379 18.9745 13.8918C19.6038 13.7861 20.6551 13.8018 21.2375 13.927C22.0152 14.0953 22.7969 14.4279 23.4222 14.8466C23.602 14.9719 23.7545 15.0697 23.7623 15.0697C23.7662 15.0697 24.2078 14.5023 24.7394 13.8057C25.2748 13.113 25.7946 12.436 25.8962 12.303L26.0838 12.0643L25.7634 11.8295C24.4931 10.9137 22.9572 10.3072 21.3352 10.0763C20.8545 10.0098 19.5374 9.97454 19.0879 10.0215Z" fill="#3F4222"/>
</svg>
