<svg width="250" height="275" viewBox="0 0 250 275" fill="none" xmlns="http://www.w3.org/2000/svg">
<path d="M100.507 275C95.5518 273.032 90.93 270.433 86.2479 267.936C77.6872 263.372 69.8032 257.875 62.602 251.494C51.4621 241.614 43.2476 229.894 40.033 215.358C38.3273 207.639 38.3654 199.808 39.709 191.975C42.1613 177.652 48.0886 164.705 55.6868 152.335C61.8873 142.236 69.0884 132.842 76.8931 123.93C86.4035 113.072 96.7081 102.915 107.384 93.1221C116.583 84.6861 126.164 76.6826 135.919 68.877C145.461 61.2444 155.197 53.8591 165.238 46.8538C174.913 40.1081 184.627 33.418 194.576 27.0493C194.789 26.9133 195.024 26.802 195.224 26.6475C197.308 25.0407 197.308 25.0345 195.027 23.6007C190.367 20.6743 185.704 17.7511 181.038 14.834C180.504 14.5003 179.942 14.2191 179.624 13.5516C188.074 11.0672 196.463 8.6167 204.922 6.37637C212.199 4.45123 219.422 2.34378 226.662 0.298126C227.16 0.159058 227.7 -0.217926 228.12 0.171417C228.682 0.693634 228.053 1.2406 227.856 1.70721C223.298 12.4732 218.698 23.2237 214.124 33.9835C212.711 37.3084 211.37 40.6581 209.966 43.9861C209.633 44.7741 209.515 45.6981 208.584 46.3068C206.386 42.6296 205.008 38.6495 203.318 34.8085C202.352 32.6145 201.313 30.4515 200.427 28.2266C199.947 27.0276 199.385 27.3891 198.724 27.9361C196.028 30.161 193.337 32.3951 190.647 34.6324C181.962 41.8509 173.497 49.2981 165.127 56.8596C150.81 69.801 137.453 83.6292 124.801 98.091C116.285 107.825 108.372 118.025 101.193 128.767C94.1637 139.279 87.7377 150.088 82.5504 161.571C78.4242 170.709 75.0888 180.124 73.0146 189.904C70.232 203.028 69.2663 216.263 72.0839 229.489C75.6225 246.101 83.4272 260.433 96.8891 271.555C98.1121 272.565 99.3446 273.566 100.571 274.574C100.695 274.734 100.676 274.879 100.507 275Z" fill="#F1F1E7"/>
<path d="M116.25 68.9084C119.894 65.8677 123.75 62.7189 127.905 59.397C138.425 50.9795 148.231 43.6127 157.885 36.8793C160.94 34.7471 164.082 32.5686 167.271 30.3746C154.066 25.7611 139.839 23.2303 124.998 23.2303C55.9635 23.2303 0 77.6719 0 144.829C0 174.405 10.8636 201.508 28.9093 222.586C28.4582 221.053 28.0453 219.505 27.699 217.942C25.7423 209.095 25.5962 199.679 27.2607 189.957C29.7384 175.508 35.3258 161.553 44.8521 146.041C45.3858 145.172 45.9417 144.304 46.4944 143.439C47.2091 104.815 77.5129 73.1047 116.25 68.9084Z" fill="#F1F1E7"/>
<path d="M197.515 45.8128C196.972 45.3184 196.486 45.8128 194.951 47.2281C188.424 52.744 181.572 58.7542 173.716 65.8522C169.641 69.5356 165.61 73.3396 161.601 77.2547C186.518 90.0787 203.544 115.551 203.544 144.829C203.544 186.957 168.31 221.236 125.002 221.236C109.602 221.236 95.2379 216.885 83.1006 209.407C82.8242 215.646 83.2562 221.433 84.441 226.996C87.6017 241.834 94.3454 253.348 105.06 262.198C105.654 262.693 107.76 264.414 108.96 265.396C114.214 266.051 119.56 266.428 125.002 266.428C194.037 266.428 250 211.987 250 144.829C250 103.978 229.273 67.8639 197.515 45.8128Z" fill="#F1F1E7"/>
<path d="M98.7278 84.1921C104.115 79.251 109.842 74.2543 116.249 68.9084C77.512 73.1048 47.2082 104.816 46.4935 143.436C52.3097 134.305 59.1265 125.291 67.2901 115.968C76.108 105.9 86.3935 95.505 98.7278 84.1921Z" fill="#F1F1E7" fill-opacity="0.5"/>
<path d="M204.218 145.307C204.218 187.5 169.051 221.71 125.679 221.71C110.59 221.71 96.5091 217.551 84.5337 210.379C88.2724 210.957 92.0874 211.259 95.9881 211.259C136.393 211.259 169.156 179.388 169.156 140.082C169.156 120.104 160.697 102.046 147.063 89.1288L161.084 77.0898C186.664 89.6758 204.218 115.5 204.218 145.307Z" fill="#F1F1E7" fill-opacity="0.3"/>
</svg>
