<svg width="214" height="40" viewBox="0 0 214 40" fill="none" xmlns="http://www.w3.org/2000/svg">
<path d="M47.3787 16.126V19.239H52.6066V21.4877H47.3787V26.9182H44.6587V13.7739H54.1961V16.126H47.3787Z" fill="#F1F1E7"/>
<path d="M61.3315 22.9057V21.8332C60.9078 22.0755 60.307 22.1793 59.4239 22.3177C58.2232 22.5254 57.0573 22.698 57.0573 23.8397C57.0573 24.6352 57.6223 25.1193 58.5761 25.1193C60.0949 25.1193 61.3315 24.1165 61.3315 22.9057ZM64.8285 24.7737V26.9181C64.6518 26.9527 64.3691 26.9873 63.9101 26.9873C62.6033 26.9873 61.9318 26.5032 61.7556 25.3962C60.978 26.434 59.6006 27.0911 58.0464 27.0911C55.9975 27.0911 54.5847 25.8803 54.5847 24.0473C54.5847 21.4184 57.128 20.8992 59.1416 20.6574C60.519 20.4844 61.4021 20.3113 61.4021 19.6196C61.4021 18.8932 60.6251 18.4087 59.3532 18.4087C58.2232 18.4087 57.1633 18.8586 56.3509 19.6888L54.8321 18.1323C56.0682 16.9906 57.6223 16.3681 59.4946 16.3681C62.1792 16.3681 63.7687 17.6823 63.7687 19.8272V24.1511C63.7687 24.566 63.9808 24.7737 64.4044 24.7737H64.8285Z" fill="#F1F1E7"/>
<path d="M83.6208 20.346V26.9182H81.0775V20.9339C81.0775 19.3428 80.4065 18.4434 79.1346 18.4434C77.6511 18.4434 76.5913 19.4812 76.5913 20.9685V26.9182H74.048V20.9339C74.048 19.3428 73.377 18.4434 72.1051 18.4434C70.6217 18.4434 69.5618 19.4812 69.5618 20.9685V26.9182H67.0186V16.5412H69.2796L69.4209 17.9939C70.1627 16.9907 71.3987 16.3682 72.9175 16.3682C74.4368 16.3682 75.6022 17.0945 76.1677 18.3396C76.9094 17.1292 78.2515 16.3682 79.9117 16.3682C82.1373 16.3682 83.6208 17.9593 83.6208 20.346Z" fill="#F1F1E7"/>
<path d="M86.6939 16.541H89.2372V26.9184H86.6939V16.541ZM86.5879 12.9435H89.3432V15.1571H86.5879V12.9435Z" fill="#F1F1E7"/>
<path d="M92.4868 13.0819H95.0301V26.9184H92.4868V13.0819Z" fill="#F1F1E7"/>
<path d="M102.201 27.1258L102.378 26.6071H99.799C99.6576 26.8489 99.587 27.1258 99.587 27.4027C99.587 28.0598 100.046 28.5093 100.717 28.5093C101.424 28.5093 101.883 28.0252 102.201 27.1258ZM108.277 16.5412L104.85 26.6417C103.896 29.374 102.66 30.5503 100.717 30.5503C98.7038 30.5503 97.3971 29.2702 97.3971 27.3334C97.3971 26.3302 97.7501 25.5347 98.4564 24.7737H99.9404L96.7256 16.5412H99.4456L102.378 24.7737H103.049L105.557 16.5412H108.277Z" fill="#F1F1E7"/>
<path d="M125.444 20.346C125.444 17.6479 123.925 15.9183 121.629 15.9183C119.333 15.9183 117.814 17.6479 117.814 20.346C117.814 23.0442 119.333 24.7738 121.629 24.7738C123.925 24.7738 125.444 23.0442 125.444 20.346ZM115.059 20.346C115.059 16.3336 117.708 13.6008 121.629 13.6008C125.62 13.6008 128.234 16.2644 128.234 20.346C128.234 24.3585 125.55 27.0913 121.629 27.0913C117.673 27.0913 115.059 24.4277 115.059 20.346Z" fill="#F1F1E7"/>
<path d="M130.636 13.0819H133.18V26.9184H130.636V13.0819Z" fill="#F1F1E7"/>
<path d="M136.429 16.541H138.973V26.9184H136.429V16.541ZM136.323 12.9435H139.079V15.1571H136.323V12.9435Z" fill="#F1F1E7"/>
<path d="M152.254 16.541L148.157 26.9184H145.048L140.986 16.541H143.741L146.673 24.4625L149.534 16.541H152.254Z" fill="#F1F1E7"/>
<path d="M155.575 20.6919H160.944C160.661 19.2046 159.707 18.3744 158.33 18.3744C156.847 18.3744 155.857 19.2392 155.575 20.6919ZM158.507 25.0158C159.884 25.0158 160.873 24.4971 161.509 23.7703L163.099 25.258C162.109 26.33 160.626 27.091 158.507 27.091C154.868 27.091 152.996 24.8081 152.996 21.7297C152.996 18.5474 155.116 16.3679 158.33 16.3679C161.474 16.3679 163.523 18.4782 163.523 21.7297C163.523 21.9715 163.523 22.1446 163.452 22.5253H155.539C155.787 24.0818 156.847 25.0158 158.507 25.0158Z" fill="#F1F1E7"/>
<path d="M170.835 20.346C170.835 16.3336 173.449 13.6008 177.299 13.6008C180.16 13.6008 182.244 14.9843 183.021 17.4402L180.478 18.305C179.983 16.7139 178.853 15.8491 177.264 15.8491C175.038 15.8491 173.59 17.5786 173.59 20.346C173.59 23.1134 175.003 24.843 177.264 24.843C178.853 24.843 179.983 23.9782 180.478 22.3871L183.021 23.2519C182.28 25.6386 180.16 27.0913 177.299 27.0913C173.413 27.0913 170.835 24.4277 170.835 20.346Z" fill="#F1F1E7"/>
<path d="M185.176 13.0819H187.719V26.9184H185.176V13.0819Z" fill="#F1F1E7"/>
<path d="M200.471 16.541V26.9184H198.21L198.069 25.396C197.292 26.4339 195.985 27.091 194.466 27.091C192.205 27.091 190.615 25.4999 190.615 23.1132V16.541H193.159V22.5253C193.159 24.1164 193.936 25.0158 195.243 25.0158C196.727 25.0158 197.928 23.978 197.928 22.4907V16.541H200.471Z" fill="#F1F1E7"/>
<path d="M211.421 21.7296C211.421 19.7232 210.362 18.4436 208.666 18.4436C206.971 18.4436 205.946 19.7232 205.946 21.7296C205.946 23.7361 206.971 25.0157 208.666 25.0157C210.362 25.0157 211.421 23.7361 211.421 21.7296ZM214 21.7296C214 24.9465 212.128 27.0914 209.443 27.0914C207.924 27.0914 206.723 26.4684 205.911 25.431L205.77 26.9183H203.509V13.0818H206.052V17.9249C206.864 16.9216 208.066 16.3679 209.443 16.3679C212.198 16.3679 214 18.4782 214 21.7296Z" fill="#F1F1E7"/>
<path d="M14.5229 40C13.8069 39.7137 13.139 39.3357 12.4625 38.9725C11.2255 38.3086 10.0863 37.509 9.04574 36.5809C7.43605 35.1439 6.24909 33.4391 5.78459 31.3248C5.53811 30.202 5.54362 29.063 5.73777 27.9236C6.09212 25.8403 6.9486 23.957 8.04651 22.1578C8.94247 20.6889 9.983 19.3225 11.1107 18.0262C12.485 16.4468 13.9739 14.9694 15.5166 13.545C16.8459 12.318 18.2302 11.1538 19.6398 10.0185C21.0186 8.90827 22.4254 7.83403 23.8763 6.81508C25.2744 5.83388 26.678 4.86078 28.1155 3.93442C28.1463 3.91464 28.1803 3.89846 28.2092 3.87598C28.5103 3.64226 28.5103 3.64136 28.1807 3.4328C27.5074 3.00716 26.8336 2.58195 26.1593 2.15765C26.0822 2.10911 26.0009 2.06821 25.9551 1.97112C27.176 1.60975 28.3882 1.25332 29.6105 0.927452C30.662 0.64743 31.7058 0.340893 32.7518 0.0433426C32.8239 0.0231133 32.9019 -0.0317192 32.9625 0.0249138C33.0437 0.100872 32.9529 0.180431 32.9244 0.248299C32.2657 1.81426 31.6011 3.37797 30.9402 4.94303C30.7359 5.42666 30.5422 5.91389 30.3394 6.39797C30.2912 6.51258 30.2742 6.64697 30.1397 6.73552C29.8221 6.20065 29.6229 5.62173 29.3787 5.06304C29.2391 4.74392 29.0891 4.42928 28.961 4.10566C28.8917 3.93127 28.8104 3.98386 28.715 4.06341C28.3253 4.38703 27.9365 4.712 27.5478 5.03742C26.2929 6.08738 25.0697 7.17061 23.8602 8.27047C21.7915 10.1529 19.8615 12.1642 18.0333 14.2678C16.8027 15.6836 15.6594 17.1673 14.622 18.7297C13.6063 20.2588 12.6778 21.831 11.9282 23.5013C11.332 24.8303 10.85 26.1999 10.5503 27.6225C10.1482 29.5314 10.0087 31.4564 10.4158 33.3802C10.9272 35.7965 12.0549 37.8812 14.0001 39.4988C14.1768 39.6458 14.3549 39.7914 14.5321 39.938C14.55 39.9613 14.5472 39.9825 14.5229 40Z" fill="#F1F1E7"/>
<path d="M16.7978 10.023C17.3242 9.58069 17.8815 9.12267 18.4818 8.63949C20.002 7.41513 21.4189 6.34359 22.8138 5.36419C23.2554 5.05406 23.7093 4.73718 24.1701 4.41806C22.2621 3.747 20.2063 3.37888 18.0618 3.37888C8.08654 3.37888 0 11.2977 0 21.066C0 25.3679 1.56976 29.3102 4.1773 32.3761C4.11212 32.1531 4.05245 31.928 4.00242 31.7005C3.71968 30.4137 3.69857 29.0441 3.93908 27.6301C4.2971 25.5284 5.10446 23.4986 6.48099 21.2422C6.5581 21.1159 6.63842 20.9896 6.71829 20.8638C6.82156 15.2458 11.2004 10.6333 16.7978 10.023Z" fill="#F1F1E7"/>
<path d="M28.5402 6.66375C28.4617 6.59183 28.3915 6.66375 28.1698 6.8696C27.2266 7.67191 26.2365 8.54613 25.1014 9.57857C24.5125 10.1143 23.9301 10.6676 23.3508 11.2371C26.9512 13.1024 29.4114 16.8074 29.4114 21.0662C29.4114 27.1938 24.3202 32.1798 18.0623 32.1798C15.8371 32.1798 13.7615 31.5469 12.0077 30.4592C11.9678 31.3667 12.0302 32.2086 12.2014 33.0176C12.6581 35.176 13.6326 36.8507 15.1808 38.138C15.2666 38.2099 15.5709 38.4602 15.7444 38.6032C16.5036 38.6985 17.2761 38.7533 18.0623 38.7533C28.0376 38.7533 36.1242 30.8345 36.1242 21.0662C36.1242 15.1241 33.1292 9.87117 28.5402 6.66375Z" fill="#F1F1E7"/>
<path d="M14.2659 12.2461C15.0444 11.5274 15.872 10.8006 16.7978 10.023C11.2003 10.6334 6.82154 15.2459 6.71826 20.8634C7.55868 19.5352 8.54368 18.2241 9.72329 16.868C10.9975 15.4036 12.4837 13.8916 14.2659 12.2461Z" fill="white"/>
<path d="M29.5088 21.1356C29.5088 27.2726 24.4273 32.2487 18.1602 32.2487C15.98 32.2487 13.9452 31.6438 12.2148 30.6005C12.7551 30.6846 13.3063 30.7286 13.87 30.7286C19.7084 30.7286 24.4424 26.0928 24.4424 20.3755C24.4424 17.4697 23.2201 14.843 21.2501 12.9642L23.2761 11.213C26.9724 13.0437 29.5088 16.8 29.5088 21.1356Z" fill="white"/>
</svg>
