<svg width="214" height="40" viewBox="0 0 214 40" fill="none" xmlns="http://www.w3.org/2000/svg">
<path d="M47.3782 16.126V19.239H52.6061V21.4877H47.3782V26.9182H44.6582V13.7739H54.1956V16.126H47.3782Z" fill="#373535"/>
<path d="M61.3317 22.9056V21.8331C60.9081 22.0754 60.3072 22.1792 59.4241 22.3177C58.2234 22.5253 57.0576 22.6979 57.0576 23.8396C57.0576 24.6352 57.6226 25.1192 58.5764 25.1192C60.0952 25.1192 61.3317 24.1165 61.3317 22.9056ZM64.8288 24.7736V26.918C64.6521 26.9526 64.3693 26.9872 63.9103 26.9872C62.6036 26.9872 61.9321 26.5032 61.7558 25.3961C60.9783 26.4339 59.6008 27.0911 58.0467 27.0911C55.9977 27.0911 54.585 25.8802 54.585 24.0472C54.585 21.4183 57.1282 20.8991 59.1418 20.6573C60.5193 20.4843 61.4024 20.3112 61.4024 19.6195C61.4024 18.8932 60.6253 18.4086 59.3534 18.4086C58.2234 18.4086 57.1636 18.8585 56.3512 19.6887L54.8324 18.1322C56.0684 16.9905 57.6226 16.368 59.4948 16.368C62.1795 16.368 63.769 17.6823 63.769 19.8272V24.1511C63.769 24.5659 63.981 24.7736 64.4047 24.7736H64.8288Z" fill="#373535"/>
<path d="M83.6208 20.346V26.9182H81.0775V20.934C81.0775 19.3428 80.4065 18.4434 79.1346 18.4434C77.6511 18.4434 76.5913 19.4813 76.5913 20.9686V26.9182H74.048V20.934C74.048 19.3428 73.377 18.4434 72.1051 18.4434C70.6217 18.4434 69.5618 19.4813 69.5618 20.9686V26.9182H67.0186V16.5413H69.2796L69.4209 17.994C70.1627 16.9907 71.3987 16.3682 72.9175 16.3682C74.4368 16.3682 75.6022 17.0946 76.1677 18.3396C76.9094 17.1292 78.2515 16.3682 79.9117 16.3682C82.1373 16.3682 83.6208 17.9593 83.6208 20.346Z" fill="#373535"/>
<path d="M86.6939 16.5411H89.2372V26.9185H86.6939V16.5411ZM86.5879 12.9435H89.3432V15.1571H86.5879V12.9435Z" fill="#373535"/>
<path d="M92.4863 13.0819H95.0296V26.9185H92.4863V13.0819Z" fill="#373535"/>
<path d="M102.201 27.1258L102.378 26.6071H99.799C99.6576 26.8489 99.587 27.1258 99.587 27.4026C99.587 28.0598 100.046 28.5092 100.717 28.5092C101.424 28.5092 101.883 28.0252 102.201 27.1258ZM108.277 16.5412L104.85 26.6417C103.896 29.374 102.66 30.5503 100.717 30.5503C98.7038 30.5503 97.3971 29.2702 97.3971 27.3334C97.3971 26.3302 97.7501 25.5346 98.4564 24.7737H99.9404L96.7256 16.5412H99.4456L102.378 24.7737H103.049L105.557 16.5412H108.277Z" fill="#373535"/>
<path d="M125.444 20.3461C125.444 17.6479 123.925 15.9183 121.629 15.9183C119.333 15.9183 117.814 17.6479 117.814 20.3461C117.814 23.0443 119.333 24.7738 121.629 24.7738C123.925 24.7738 125.444 23.0443 125.444 20.3461ZM115.059 20.3461C115.059 16.3337 117.708 13.6009 121.629 13.6009C125.62 13.6009 128.234 16.2644 128.234 20.3461C128.234 24.3585 125.55 27.0913 121.629 27.0913C117.673 27.0913 115.059 24.4277 115.059 20.3461Z" fill="#373535"/>
<path d="M130.637 13.0819H133.18V26.9185H130.637V13.0819Z" fill="#373535"/>
<path d="M136.429 16.5411H138.973V26.9185H136.429V16.5411ZM136.323 12.9435H139.079V15.1571H136.323V12.9435Z" fill="#373535"/>
<path d="M152.255 16.5411L148.157 26.9185H145.048L140.986 16.5411H143.742L146.673 24.4625L149.535 16.5411H152.255Z" fill="#373535"/>
<path d="M155.575 20.6919H160.944C160.661 19.2046 159.707 18.3745 158.33 18.3745C156.847 18.3745 155.857 19.2392 155.575 20.6919ZM158.507 25.0159C159.884 25.0159 160.873 24.4972 161.509 23.7704L163.099 25.2581C162.109 26.3301 160.626 27.0911 158.507 27.0911C154.868 27.0911 152.996 24.8082 152.996 21.7298C152.996 18.5475 155.116 16.368 158.33 16.368C161.474 16.368 163.523 18.4783 163.523 21.7298C163.523 21.9716 163.523 22.1446 163.452 22.5253H155.539C155.787 24.0819 156.847 25.0159 158.507 25.0159Z" fill="#373535"/>
<path d="M170.835 20.3461C170.835 16.3337 173.449 13.6009 177.299 13.6009C180.16 13.6009 182.245 14.9843 183.022 17.4403L180.478 18.305C179.984 16.7139 178.854 15.8491 177.264 15.8491C175.038 15.8491 173.59 17.5787 173.59 20.3461C173.59 23.1135 175.003 24.8431 177.264 24.8431C178.854 24.8431 179.984 23.9783 180.478 22.3871L183.022 23.2519C182.28 25.6386 180.16 27.0913 177.299 27.0913C173.414 27.0913 170.835 24.4277 170.835 20.3461Z" fill="#373535"/>
<path d="M185.176 13.0819H187.719V26.9185H185.176V13.0819Z" fill="#373535"/>
<path d="M200.471 16.5411V26.9185H198.21L198.069 25.3961C197.292 26.4339 195.985 27.0911 194.466 27.0911C192.205 27.0911 190.615 25.4999 190.615 23.1132V16.5411H193.159V22.5253C193.159 24.1165 193.936 25.0159 195.243 25.0159C196.726 25.0159 197.927 23.978 197.927 22.4907V16.5411H200.471Z" fill="#373535"/>
<path d="M211.421 21.7296C211.421 19.7231 210.362 18.4435 208.666 18.4435C206.971 18.4435 205.946 19.7231 205.946 21.7296C205.946 23.736 206.971 25.0156 208.666 25.0156C210.362 25.0156 211.421 23.736 211.421 21.7296ZM214 21.7296C214 24.9464 212.128 27.0913 209.443 27.0913C207.924 27.0913 206.723 26.4683 205.911 25.431L205.77 26.9183H203.509V13.0817H206.052V17.9248C206.864 16.9216 208.066 16.3678 209.443 16.3678C212.198 16.3678 214 18.4781 214 21.7296Z" fill="#373535"/>
<path d="M14.523 40C13.807 39.7137 13.1392 39.3357 12.4626 38.9725C11.2256 38.3086 10.0864 37.509 9.04586 36.5809C7.43617 35.1439 6.24921 33.4391 5.78471 31.3248C5.53823 30.202 5.54374 29.063 5.7379 27.9236C6.09224 25.8403 6.94872 23.957 8.04663 22.1578C8.94259 20.6889 9.98312 19.3225 11.1109 18.0262C12.4851 16.4468 13.9741 14.9694 15.5167 13.545C16.846 12.318 18.2303 11.1538 19.6399 10.0185C21.0187 8.90827 22.4255 7.83403 23.8764 6.81508C25.2745 5.83388 26.6781 4.86078 28.1157 3.93442C28.1464 3.91464 28.1804 3.89846 28.2093 3.87598C28.5104 3.64226 28.5104 3.64136 28.1808 3.4328C27.5075 3.00716 26.8337 2.58195 26.1594 2.15765C26.0823 2.10911 26.0011 2.06821 25.9552 1.97112C27.1761 1.60975 28.3883 1.25332 29.6106 0.927452C30.6621 0.64743 31.7059 0.340893 32.7519 0.0433426C32.824 0.0231133 32.902 -0.0317192 32.9626 0.0249138C33.0439 0.100872 32.953 0.180431 32.9245 0.248299C32.2659 1.81426 31.6012 3.37797 30.9403 4.94303C30.736 5.42666 30.5424 5.91389 30.3395 6.39797C30.2913 6.51258 30.2743 6.64697 30.1398 6.73552C29.8222 6.20065 29.623 5.62173 29.3788 5.06304C29.2393 4.74392 29.0892 4.42928 28.9611 4.10566C28.8918 3.93127 28.8106 3.98386 28.7151 4.06341C28.3254 4.38703 27.9366 4.712 27.5479 5.03742C26.293 6.08738 25.0698 7.17061 23.8603 8.27047C21.7916 10.1529 19.8616 12.1642 18.0334 14.2678C16.8028 15.6836 15.6595 17.1673 14.6222 18.7297C13.6064 20.2588 12.6779 21.831 11.9283 23.5013C11.3321 24.8303 10.8502 26.1999 10.5504 27.6225C10.1484 29.5314 10.0088 31.4564 10.416 33.3802C10.9273 35.7965 12.055 37.8812 14.0002 39.4988C14.1769 39.6458 14.355 39.7914 14.5322 39.938C14.5501 39.9613 14.5474 39.9825 14.523 40Z" fill="#373535"/>
<path d="M16.7978 10.0229C17.3242 9.58059 17.8815 9.12258 18.4818 8.63939C20.002 7.41503 21.4189 6.34349 22.8138 5.36409C23.2554 5.05396 23.7093 4.73708 24.1701 4.41796C22.2621 3.7469 20.2063 3.37878 18.0618 3.37878C8.08654 3.37878 0 11.2976 0 21.0659C0 25.3678 1.56976 29.3101 4.1773 32.376C4.11212 32.153 4.05245 31.9279 4.00242 31.7004C3.71968 30.4136 3.69857 29.044 3.93908 27.63C4.2971 25.5283 5.10446 23.4985 6.48099 21.2421C6.5581 21.1158 6.63842 20.9895 6.71829 20.8637C6.82156 15.2457 11.2004 10.6332 16.7978 10.0229Z" fill="#373535"/>
<path d="M28.5402 6.66362C28.4617 6.5917 28.3915 6.66362 28.1698 6.86947C27.2266 7.67178 26.2365 8.546 25.1014 9.57844C24.5125 10.1142 23.9301 10.6675 23.3508 11.237C26.9512 13.1023 29.4114 16.8073 29.4114 21.066C29.4114 27.1937 24.3202 32.1797 18.0623 32.1797C15.8371 32.1797 13.7615 31.5468 12.0077 30.4591C11.9678 31.3666 12.0302 32.2084 12.2014 33.0175C12.6581 35.1758 13.6326 36.8506 15.1808 38.1378C15.2666 38.2098 15.5709 38.4601 15.7444 38.6031C16.5036 38.6983 17.2761 38.7532 18.0623 38.7532C28.0376 38.7532 36.1242 30.8344 36.1242 21.066C36.1242 15.124 33.1292 9.87104 28.5402 6.66362Z" fill="#373535"/>
<path d="M14.2664 12.246C15.0449 11.5273 15.8725 10.8005 16.7982 10.0229C11.2008 10.6333 6.82202 15.2458 6.71875 20.8633C7.55917 19.5351 8.54417 18.224 9.72378 16.8679C10.9979 15.4036 12.4842 13.8915 14.2664 12.246Z" fill="#373535"/>
<path d="M29.5088 21.1356C29.5088 27.2727 24.4273 32.2488 18.1602 32.2488C15.98 32.2488 13.9452 31.6438 12.2148 30.6006C12.7551 30.6846 13.3063 30.7287 13.87 30.7287C19.7084 30.7287 24.4424 26.0928 24.4424 20.3755C24.4424 17.4697 23.2201 14.843 21.2501 12.9642L23.2761 11.2131C26.9724 13.0438 29.5088 16.8 29.5088 21.1356Z" fill="#373535"/>
</svg>
