<?xml version="1.0" standalone="no"?>
<!DOCTYPE svg PUBLIC "-//W3C//DTD SVG 20010904//EN"
 "http://www.w3.org/TR/2001/REC-SVG-20010904/DTD/svg10.dtd">
<svg version="1.0" xmlns="http://www.w3.org/2000/svg"
 width="1440.000000pt" height="1024.000000pt" viewBox="0 0 1440.000000 1024.000000"
 preserveAspectRatio="xMidYMid meet">

<g transform="translate(0.000000,1024.000000) scale(0.100000,-0.100000)"
fill="#000000" stroke="none">
<path d="M10 10220 c-12 -22 -14 -1092 -2 -1074 10 16 56 25 147 30 44 2 105
8 135 14 58 10 109 8 128 -4 7 -4 16 -4 22 -1 5 3 37 6 71 6 34 0 85 5 113 10
130 25 280 47 291 42 16 -5 241 34 265 47 9 5 36 10 58 11 l42 3 0 47 c0 29 5
49 13 52 9 3 9 7 -2 20 -12 15 -10 17 20 18 19 1 26 3 17 6 -10 2 -18 13 -18
24 0 12 -7 19 -19 19 -11 0 -32 11 -48 24 -35 29 -87 56 -108 56 -8 0 -15 7
-15 15 0 18 -43 37 -65 29 -8 -4 -15 -1 -15 5 0 6 -9 11 -19 11 -11 0 -22 4
-25 9 -9 14 25 23 40 10 11 -9 18 -8 29 1 8 7 24 10 35 7 11 -3 20 -2 20 1 0
4 37 7 82 6 74 -1 145 11 158 26 3 3 43 6 90 7 47 0 99 6 115 13 17 7 41 14
55 16 14 2 26 8 28 14 2 5 10 10 18 10 8 0 14 6 14 14 0 17 29 28 85 31 22 1
48 5 58 10 10 4 31 5 48 1 24 -5 30 -3 26 8 -5 12 5 14 56 11 34 -2 82 1 108
6 29 6 54 6 70 0 14 -5 32 -6 40 -1 23 12 81 21 74 11 -5 -9 108 -4 135 6 25
10 39 14 70 20 16 3 30 11 30 18 0 7 14 15 30 19 17 3 29 11 28 18 -2 7 11 13
32 15 57 4 82 13 77 26 -5 17 -80 33 -85 18 -4 -13 -79 -15 -84 -2 -1 5 -46
11 -99 14 -55 3 -105 11 -117 18 -25 16 -28 25 -10 32 10 3 10 7 -1 20 -7 9
-11 24 -7 32 3 8 2 15 -3 15 -5 0 -11 9 -14 20 -3 12 -14 20 -26 20 -12 0 -21
5 -21 11 0 6 -9 8 -21 4 -11 -4 -35 0 -55 10 -19 9 -54 17 -78 19 -24 1 -51 8
-60 15 -13 11 -19 11 -31 1 -12 -10 -21 -10 -40 -2 -14 6 -32 9 -40 6 -8 -4
-15 -2 -15 3 0 13 -52 14 -740 19 l-635 4 -16 -29 c-12 -21 -14 -32 -6 -40 8
-8 6 -11 -6 -11 -9 0 -17 6 -17 14 0 8 -6 16 -14 19 -9 4 -12 14 -9 26 5 21 2
21 -185 21 -180 0 -192 -1 -202 -20z m1083 -627 c-7 -2 -19 -2 -25 0 -7 3 -2
5 12 5 14 0 19 -2 13 -5z m177 -254 c0 -15 -4 -19 -16 -15 -9 3 -18 6 -20 6
-2 0 -4 7 -4 15 0 8 9 15 20 15 14 0 20 -7 20 -21z"/>
<path d="M10905 10230 c3 -5 10 -10 16 -10 5 0 9 5 9 10 0 6 -7 10 -16 10 -8
0 -12 -4 -9 -10z"/>
<path d="M14038 10228 c17 -17 15 -29 -3 -22 -9 4 -15 0 -15 -8 0 -25 36 -125
60 -170 6 -10 10 -24 10 -31 0 -7 9 -20 19 -29 11 -9 23 -34 27 -55 4 -21 10
-42 13 -48 4 -5 6 -33 6 -62 0 -50 1 -53 35 -67 38 -17 129 -24 148 -12 7 4
19 2 27 -4 31 -26 35 0 35 261 l0 259 -187 0 c-145 0 -184 -3 -175 -12z"/>
<path d="M4456 9579 c-28 -22 -36 -45 -12 -36 8 3 16 -2 19 -15 3 -11 10 -17
15 -14 10 6 22 -39 22 -85 0 -29 -43 -69 -74 -69 -17 0 -28 -7 -67 -43 -12
-10 -27 -16 -34 -13 -8 3 -34 -15 -61 -40 -36 -36 -44 -48 -33 -55 11 -7 10
-9 -3 -9 -24 0 -23 -17 3 -31 15 -8 20 -18 16 -35 -2 -13 0 -24 4 -24 5 0 9
-5 9 -12 0 -22 62 -67 104 -73 22 -4 46 -11 51 -15 24 -18 74 -29 78 -17 3 9
8 9 20 -1 9 -8 25 -11 36 -7 27 8 102 -13 123 -35 9 -10 31 -21 47 -25 35 -8
55 -29 47 -50 -7 -18 -46 -20 -46 -2 0 13 -25 -26 -36 -56 -4 -10 -20 -21 -35
-24 -26 -5 -41 -21 -21 -24 45 -6 82 -7 82 -1 0 4 28 6 62 5 35 -2 79 2 100 8
25 8 45 9 65 1 21 -7 36 -6 51 2 23 12 20 29 -3 20 -7 -3 -16 0 -20 7 -5 7 -3
10 6 7 8 -3 22 1 31 10 10 8 37 15 60 17 24 1 50 5 59 9 10 4 23 6 30 5 8 -1
32 3 55 9 22 7 58 14 80 16 21 3 62 10 89 15 28 5 70 7 95 4 38 -4 55 0 102
26 47 25 76 32 163 41 59 6 130 15 158 21 29 6 103 10 166 9 103 0 121 2 190
29 42 16 93 32 114 36 20 4 37 13 37 20 0 9 11 12 38 8 72 -9 193 41 287 119
6 5 18 15 29 22 15 10 17 16 7 34 -6 12 -18 22 -26 22 -8 0 -15 3 -15 8 0 4
-17 7 -38 6 -53 -1 -122 -15 -122 -25 0 -5 -7 -6 -16 -2 -9 3 -20 0 -25 -8 -6
-11 -13 -11 -26 -3 -11 7 -29 8 -48 2 -41 -11 -156 -7 -178 6 -13 8 -20 8 -25
-1 -7 -12 -42 -12 -182 -3 -3 0 2 5 10 10 11 7 6 8 -16 4 -20 -4 -36 -1 -45 8
-11 12 -71 38 -85 38 -2 0 -4 -10 -4 -22 -1 -21 -2 -21 -11 -5 -12 21 -52 22
-82 2 -20 -12 -28 -12 -66 1 -24 8 -51 12 -59 9 -9 -3 -19 0 -23 7 -5 8 -26
12 -59 11 -31 -1 -50 2 -50 9 0 7 -14 8 -38 4 -21 -3 -53 -2 -70 3 -26 8 -32
7 -32 -6 0 -13 -9 -15 -45 -11 -33 4 -55 0 -82 -14 -20 -11 -47 -18 -60 -15
-12 2 -28 -2 -34 -9 -6 -8 -19 -14 -28 -13 -13 0 -13 2 2 8 15 5 11 9 -20 21
-21 8 -42 13 -47 11 -6 -1 -19 2 -30 8 -12 6 -52 12 -91 13 -46 2 -69 7 -68
15 2 7 -10 10 -35 7 -51 -6 -72 8 -54 37 13 20 12 21 -5 14 -44 -18 -60 -17
-66 5 -7 27 -28 22 -44 -10 -10 -21 -13 -22 -19 -7 -3 9 -12 17 -19 17 -8 0
-22 10 -32 23 -10 12 -28 27 -38 33 -13 8 -19 20 -17 37 3 27 -23 49 -71 61
-15 3 -25 11 -22 16 11 18 -22 10 -49 -11z"/>
<path d="M4631 9511 c-8 -5 -9 -11 -3 -15 5 -3 12 1 16 9 6 17 6 18 -13 6z"/>
<path d="M1698 9493 c6 -2 18 -2 25 0 6 3 1 5 -13 5 -14 0 -19 -2 -12 -5z"/>
<path d="M1345 9471 c-3 -5 -1 -12 5 -16 5 -3 10 1 10 9 0 18 -6 21 -15 7z"/>
<path d="M4705 9430 c3 -5 8 -10 11 -10 2 0 4 5 4 10 0 6 -5 10 -11 10 -5 0
-7 -4 -4 -10z"/>
<path d="M13286 9398 c4 -13 7 -29 7 -35 0 -24 25 -13 40 16 17 35 14 41 -25
41 -26 0 -28 -3 -22 -22z"/>
<path d="M13234 9258 c-4 -6 -27 -8 -60 -5 -45 5 -56 3 -63 -12 -7 -13 -23
-18 -63 -19 -29 0 -57 3 -63 8 -7 6 -40 8 -74 6 -38 -2 -72 1 -87 9 -20 10
-30 10 -59 -4 -34 -16 -45 -36 -24 -43 6 -2 12 -13 13 -23 3 -29 17 -55 28
-55 5 0 22 -8 36 -18 25 -18 98 -32 233 -47 46 -5 62 -2 92 15 22 13 56 22 84
23 26 1 50 5 53 8 3 4 21 9 40 10 19 2 41 9 48 16 7 7 22 13 33 13 29 0 24 38
-6 52 -14 6 -25 15 -25 20 0 4 -5 8 -12 8 -6 0 -21 8 -32 19 -26 22 -83 35
-92 19z"/>
<path d="M14366 9229 c-16 -16 -34 -29 -40 -29 -18 0 -18 -80 -1 -106 8 -12
12 -30 9 -38 -4 -11 0 -16 12 -16 16 0 16 -2 5 -9 -12 -8 -9 -11 12 -17 16 -3
30 -4 33 -2 2 3 3 60 2 126 l-3 120 -29 -29z"/>
<path d="M3416 9241 c-4 -5 -29 -12 -56 -16 -28 -4 -50 -11 -50 -16 0 -15 -40
-10 -46 6 -8 19 -28 19 -44 0 -9 -11 -17 -12 -32 -4 -12 6 -36 9 -54 6 -19 -3
-34 -2 -34 4 0 5 -7 9 -15 9 -8 0 -15 -4 -15 -10 0 -5 -7 -10 -15 -10 -8 0
-15 3 -15 8 0 4 -18 7 -40 7 -22 0 -40 -3 -40 -8 0 -4 -3 -6 -7 -4 -5 3 -39 2
-78 -2 -38 -5 -72 -4 -75 0 -3 4 -25 4 -50 -1 -27 -5 -50 -4 -57 1 -10 9 -58
1 -113 -19 -8 -3 -20 -4 -26 -3 -7 1 -25 -12 -40 -28 -20 -22 -31 -27 -36 -18
-6 9 -8 9 -8 -1 0 -9 -7 -11 -19 -7 -12 3 -21 0 -25 -10 -3 -9 -2 -13 4 -10
13 8 50 -3 50 -15 0 -4 -9 -6 -20 -3 -11 3 -20 1 -20 -3 0 -11 61 -39 78 -36
6 2 12 -2 12 -7 0 -12 1 -12 159 -12 120 1 196 12 266 42 17 7 38 13 47 14 10
1 24 8 33 15 8 7 15 8 15 3 0 -12 118 -27 170 -22 19 1 59 3 88 3 28 1 52 4
52 8 0 4 15 8 33 10 27 2 31 7 29 26 -2 12 2 22 7 22 15 0 14 27 -1 34 -10 5
-10 7 0 12 14 7 17 44 3 44 -6 0 -12 -4 -15 -9z m-749 -47 c-3 -3 -12 -4 -19
-1 -8 3 -5 6 6 6 11 1 17 -2 13 -5z m110 0 c-3 -3 -12 -4 -19 -1 -8 3 -5 6 6
6 11 1 17 -2 13 -5z"/>
<path d="M1799 9144 c-5 -7 -19 -10 -30 -7 -11 3 -32 0 -45 -8 -22 -11 -27
-11 -34 1 -6 9 -10 10 -10 3 0 -6 7 -18 15 -27 17 -17 20 -46 5 -46 -5 0 -10
-4 -10 -10 0 -5 6 -10 14 -10 8 0 13 -8 12 -17 -1 -16 9 -18 89 -16 114 2 207
12 220 23 5 5 39 9 75 11 36 1 68 7 72 13 4 6 11 6 20 -2 11 -8 17 -6 27 10 8
12 16 17 20 11 3 -7 22 -8 46 -4 37 6 38 8 19 19 -12 6 -24 8 -28 5 -3 -3 -25
-6 -47 -5 -23 1 -47 -2 -53 -7 -6 -6 -31 -7 -56 -4 -33 5 -39 8 -25 13 18 6
16 9 -12 24 -23 11 -46 14 -78 11 -28 -4 -45 -2 -45 5 0 6 -15 8 -42 4 -27 -5
-39 -4 -35 3 10 15 -72 22 -84 7z"/>
<path d="M718 9143 c7 -3 16 -2 19 1 4 3 -2 6 -13 5 -11 0 -14 -3 -6 -6z"/>
<path d="M4207 9136 c-3 -8 0 -19 6 -25 10 -7 13 -4 15 15 2 26 -12 33 -21 10z"/>
<path d="M728 9099 c2 -16 8 -26 13 -23 14 8 11 41 -4 47 -10 4 -12 -3 -9 -24z"/>
<path d="M1040 9110 c0 -16 -5 -19 -30 -13 -18 3 -30 1 -30 -5 0 -6 10 -13 23
-15 16 -3 13 -5 -10 -6 -22 -1 -33 -6 -33 -16 0 -8 -11 -17 -25 -21 -15 -4
-28 -16 -31 -31 -4 -13 -9 -22 -12 -19 -2 3 -14 -6 -24 -20 -17 -21 -18 -29
-8 -54 7 -16 16 -27 20 -25 5 3 11 1 15 -5 3 -5 19 -10 35 -10 16 0 32 -4 35
-10 3 -5 21 -17 40 -26 19 -9 35 -20 35 -25 0 -5 11 -9 25 -9 15 0 25 -6 25
-14 0 -22 25 -26 38 -6 9 14 8 20 -1 23 -7 3 -2 6 11 6 12 1 38 -5 56 -13 18
-7 53 -17 77 -21 24 -4 51 -13 59 -19 15 -13 99 -10 323 9 70 7 79 10 87 31 5
13 16 24 24 24 7 0 27 3 45 6 26 6 32 3 40 -19 8 -19 19 -26 54 -31 25 -4 51
-14 57 -21 7 -8 21 -15 30 -15 28 0 51 -11 44 -21 -3 -5 0 -9 5 -9 6 0 11 4
11 9 0 5 19 11 43 14 61 7 95 16 136 36 20 9 55 24 79 31 l43 14 -48 18 c-26
10 -53 16 -60 14 -6 -3 -24 -1 -40 5 -93 31 -117 35 -163 29 -28 -4 -54 -2
-59 3 -18 18 -134 37 -148 25 -10 -8 -29 -4 -72 16 -63 28 -81 32 -81 16 0
-18 -57 -11 -64 7 -5 13 -9 14 -15 5 -10 -17 -117 -11 -113 7 2 10 -6 12 -31
7 -26 -5 -36 -3 -41 9 -3 8 -12 15 -19 15 -8 0 -20 7 -27 15 -7 8 -17 12 -22
9 -5 -3 -17 1 -26 10 -28 27 -93 67 -105 64 -20 -4 -84 12 -114 27 -39 21 -63
19 -63 -5z m45 -20 c3 -5 1 -10 -4 -10 -6 0 -11 5 -11 10 0 6 2 10 4 10 3 0 8
-4 11 -10z"/>
<path d="M778 9113 c7 -3 16 -2 19 1 4 3 -2 6 -13 5 -11 0 -14 -3 -6 -6z"/>
<path d="M770 9079 c0 -5 5 -7 10 -4 6 3 10 8 10 11 0 2 -4 4 -10 4 -5 0 -10
-5 -10 -11z"/>
<path d="M8037 8997 c-20 -5 -37 -13 -37 -19 0 -5 -4 -6 -10 -3 -5 3 -16 3
-22 -2 -7 -4 -29 -9 -48 -10 -55 -3 -80 -12 -80 -28 0 -8 -6 -15 -14 -15 -9 0
-12 7 -9 19 5 18 2 19 -31 9 -22 -7 -35 -17 -32 -24 6 -16 -11 -22 -57 -18
-31 3 -44 -2 -69 -26 -24 -23 -34 -27 -44 -19 -11 9 -15 7 -21 -6 -3 -11 0
-23 8 -29 8 -6 19 -20 24 -30 9 -16 85 -51 85 -39 0 3 7 -1 16 -8 12 -10 67
-14 223 -15 113 -1 232 -6 263 -11 31 -5 55 -6 52 -1 -3 4 5 4 18 -1 13 -4 57
-9 98 -9 67 -1 138 -6 195 -14 11 -2 24 -9 28 -16 5 -8 14 -9 25 -4 9 5 33 9
52 11 42 2 80 31 41 31 -16 0 -22 5 -19 18 2 12 15 18 48 20 50 4 70 16 70 42
0 14 -19 22 -87 39 -49 11 -100 21 -115 21 -16 0 -28 5 -28 11 0 6 -9 8 -20 4
-11 -4 -20 -2 -20 4 0 6 -13 11 -29 11 -50 0 -91 12 -91 27 0 8 -5 11 -12 7
-6 -4 -17 1 -24 10 -13 19 -34 14 -34 -8 0 -9 -9 -12 -25 -8 -31 5 -32 19 -2
25 12 2 -15 5 -61 6 -77 1 -83 3 -93 25 -13 28 -54 36 -112 23z"/>
<path d="M12952 8949 c-18 -5 -30 -14 -27 -20 8 -12 245 -11 245 2 0 5 -9 9
-20 9 -11 0 -20 5 -20 10 0 6 -20 10 -45 10 -26 0 -45 -5 -45 -11 0 -6 -7 -8
-15 -5 -33 13 -41 14 -73 5z m161 -6 c-7 -2 -21 -2 -30 0 -10 3 -4 5 12 5 17
0 24 -2 18 -5z"/>
<path d="M4603 8827 c-10 -13 -25 -27 -33 -30 -8 -4 -1 -4 15 -1 17 4 38 7 48
8 11 0 15 6 12 14 -3 7 -5 18 -5 23 0 16 -18 9 -37 -14z"/>
<path d="M2560 8809 c-53 -14 -92 -18 -132 -14 -62 6 -126 -6 -205 -41 -73
-32 -201 -65 -232 -61 -58 8 -247 -23 -358 -60 -41 -13 -63 -15 -110 -7 -41 6
-76 5 -118 -4 -52 -10 -72 -10 -145 5 -104 22 -253 20 -330 -2 -103 -30 -205
-52 -295 -64 -49 -7 -111 -16 -137 -20 -27 -5 -108 -7 -180 -5 -73 2 -175 0
-225 -3 l-93 -6 0 -4144 c0 -3308 3 -4143 13 -4143 9 0 9 -2 0 -8 -8 -5 -12
-44 -12 -120 l0 -112 7200 0 7199 0 0 3870 0 3869 -37 10 c-21 6 -70 10 -109
9 -69 0 -98 4 -139 22 -83 36 -199 65 -291 74 -34 3 -86 11 -114 16 -29 6
-108 10 -176 10 -97 0 -135 4 -176 19 -88 33 -126 39 -304 55 -255 24 -256 24
-296 40 -20 9 -88 29 -150 46 -62 17 -147 44 -188 60 -41 16 -105 36 -141 44
-84 19 -240 71 -291 97 -23 12 -83 26 -144 34 -57 7 -108 16 -113 19 -6 4 -45
8 -88 11 -110 6 -238 -20 -311 -62 -111 -65 -180 -93 -268 -109 -176 -33 -256
-30 -409 16 -139 42 -177 49 -310 60 -127 10 -181 20 -355 66 -30 8 -122 28
-205 45 -170 35 -251 35 -366 0 -36 -12 -112 -25 -170 -30 -57 -5 -131 -18
-164 -29 -78 -26 -155 -41 -232 -45 -62 -4 -88 -1 -221 27 -41 8 -88 15 -105
14 -76 -2 -185 26 -278 73 -61 31 -121 51 -339 112 l-145 41 -215 1 c-241 1
-326 -6 -419 -35 -35 -11 -90 -20 -122 -20 -41 0 -76 -8 -115 -25 -100 -44
-171 -55 -359 -55 -157 0 -188 3 -322 31 -138 30 -153 31 -223 20 -41 -6 -105
-11 -141 -11 -36 0 -79 -4 -95 -10 -16 -5 -87 -14 -159 -19 -93 -8 -151 -18
-205 -36 -41 -14 -122 -35 -180 -45 -58 -11 -125 -24 -150 -31 -98 -24 -128
-20 -287 36 -49 17 -95 25 -143 26 -54 1 -99 11 -188 41 -64 21 -124 39 -132
39 -22 1 -104 26 -142 42 -89 40 -166 65 -190 62 -15 -2 -45 1 -66 6 -22 4
-55 10 -75 13 -20 2 -40 7 -45 10 -4 2 -26 7 -48 10 -21 2 -60 9 -86 15 -45
10 -66 18 -135 47 -17 8 -34 14 -39 14 -4 0 -39 15 -78 33 -39 19 -118 48
-176 66 -58 17 -141 45 -185 62 -132 49 -182 59 -300 58 -75 0 -134 -7 -185
-20z m3837 -1745 c-3 -3 -12 -4 -19 -1 -8 3 -5 6 6 6 11 1 17 -2 13 -5z m1550
-100 c-3 -3 -12 -4 -19 -1 -8 3 -5 6 6 6 11 1 17 -2 13 -5z m790 -10 c-3 -3
-12 -4 -19 -1 -8 3 -5 6 6 6 11 1 17 -2 13 -5z m336 -21 c-7 -2 -19 -2 -25 0
-7 3 -2 5 12 5 14 0 19 -2 13 -5z m-1686 -9 c-3 -3 -12 -4 -19 -1 -8 3 -5 6 6
6 11 1 17 -2 13 -5z m140 -10 c-3 -3 -12 -4 -19 -1 -8 3 -5 6 6 6 11 1 17 -2
13 -5z m1826 -1 c-7 -2 -21 -2 -30 0 -10 3 -4 5 12 5 17 0 24 -2 18 -5z
m-3065 -10 c-10 -2 -26 -2 -35 0 -10 3 -2 5 17 5 19 0 27 -2 18 -5z m3169 1
c-3 -3 -12 -4 -19 -1 -8 3 -5 6 6 6 11 1 17 -2 13 -5z m90 -20 c-3 -3 -12 -4
-19 -1 -8 3 -5 6 6 6 11 1 17 -2 13 -5z m3036 -1 c-7 -2 -19 -2 -25 0 -7 3 -2
5 12 5 14 0 19 -2 13 -5z m-2855 -10 c-10 -2 -28 -2 -40 0 -13 2 -5 4 17 4 22
1 32 -1 23 -4z m2955 0 c-13 -2 -35 -2 -50 0 -16 2 -5 4 22 4 28 0 40 -2 28
-4z m-10170 -10 c-7 -2 -19 -2 -25 0 -7 3 -2 5 12 5 14 0 19 -2 13 -5z m5954
-9 c-3 -3 -12 -4 -19 -1 -8 3 -5 6 6 6 11 1 17 -2 13 -5z m-5769 -11 c-10 -2
-28 -2 -40 0 -13 2 -5 4 17 4 22 1 32 -1 23 -4z m90 -10 c-10 -2 -26 -2 -35 0
-10 3 -2 5 17 5 19 0 27 -2 18 -5z m6219 1 c-3 -3 -12 -4 -19 -1 -8 3 -5 6 6
6 11 1 17 -2 13 -5z m146 -11 c-7 -2 -21 -2 -30 0 -10 3 -4 5 12 5 17 0 24 -2
18 -5z m-6046 -19 c-3 -3 -12 -4 -19 -1 -8 3 -5 6 6 6 11 1 17 -2 13 -5z m70
-10 c-3 -3 -12 -4 -19 -1 -8 3 -5 6 6 6 11 1 17 -2 13 -5z m5186 -1 c-7 -2
-19 -2 -25 0 -7 3 -2 5 12 5 14 0 19 -2 13 -5z m4984 1 c-3 -3 -12 -4 -19 -1
-8 3 -5 6 6 6 11 1 17 -2 13 -5z m266 -1 c-29 -2 -77 -2 -105 0 -29 2 -6 3 52
3 58 0 81 -1 53 -3z m-5175 -10 c-10 -2 -26 -2 -35 0 -10 3 -2 5 17 5 19 0 27
-2 18 -5z m1355 0 c-7 -2 -21 -2 -30 0 -10 3 -4 5 12 5 17 0 24 -2 18 -5z m70
0 c-7 -2 -19 -2 -25 0 -7 3 -2 5 12 5 14 0 19 -2 13 -5z m455 0 c-10 -2 -26
-2 -35 0 -10 3 -2 5 17 5 19 0 27 -2 18 -5z m1559 1 c-3 -3 -12 -4 -19 -1 -8
3 -5 6 6 6 11 1 17 -2 13 -5z m1956 -1 c-7 -2 -19 -2 -25 0 -7 3 -2 5 12 5 14
0 19 -2 13 -5z m153 -11 c-27 -2 -52 0 -57 5 -4 4 18 6 49 3 l57 -5 -49 -3z
m-10679 2 c-3 -3 -12 -4 -19 -1 -8 3 -5 6 6 6 11 1 17 -2 13 -5z m460 0 c-3
-3 -12 -4 -19 -1 -8 3 -5 6 6 6 11 1 17 -2 13 -5z m7856 -1 c-7 -2 -19 -2 -25
0 -7 3 -2 5 12 5 14 0 19 -2 13 -5z m-7760 -10 c-7 -2 -21 -2 -30 0 -10 3 -4
5 12 5 17 0 24 -2 18 -5z m1910 0 c-7 -2 -19 -2 -25 0 -7 3 -2 5 12 5 14 0 19
-2 13 -5z m65 0 c-10 -2 -26 -2 -35 0 -10 3 -2 5 17 5 19 0 27 -2 18 -5z
m5950 0 c-10 -2 -28 -2 -40 0 -13 2 -5 4 17 4 22 1 32 -1 23 -4z m325 0 c-13
-2 -33 -2 -45 0 -13 2 -3 4 22 4 25 0 35 -2 23 -4z m144 1 c-3 -3 -12 -4 -19
-1 -8 3 -5 6 6 6 11 1 17 -2 13 -5z m-6319 -11 c-10 -2 -28 -2 -40 0 -13 2 -5
4 17 4 22 1 32 -1 23 -4z m6019 1 c-3 -3 -12 -4 -19 -1 -8 3 -5 6 6 6 11 1 17
-2 13 -5z m-5887 -14 c10 -6 2 -7 -25 -3 -49 7 -58 13 -19 13 16 0 36 -5 44
-10z m262 -12 c103 -6 185 -15 182 -20 -3 -5 -8 -7 -12 -4 -4 2 -56 6 -117 10
-208 12 -290 18 -294 22 -7 7 45 5 241 -8z m3006 5 c-10 -2 -26 -2 -35 0 -10
3 -2 5 17 5 19 0 27 -2 18 -5z m109 1 c-3 -3 -12 -4 -19 -1 -8 3 -5 6 6 6 11
1 17 -2 13 -5z m1560 0 c-3 -3 -12 -4 -19 -1 -8 3 -5 6 6 6 11 1 17 -2 13 -5z
m691 -1 c-16 -2 -40 -2 -55 0 -16 2 -3 4 27 4 30 0 43 -2 28 -4z m-2141 -9
c-3 -3 -12 -4 -19 -1 -8 3 -5 6 6 6 11 1 17 -2 13 -5z m-2732 -24 c42 -6 24
-7 -60 -3 -202 8 -225 10 -233 17 -8 9 200 -2 293 -14z m2915 10 c0 -5 -7 -7
-15 -4 -8 4 -15 8 -15 10 0 2 7 4 15 4 8 0 15 -4 15 -10z m280 -14 c8 -2 -14
-4 -50 -5 -36 0 -71 3 -78 7 -11 8 92 5 128 -2z m-3012 -3 c-21 -2 -57 -2 -80
0 -24 2 -7 4 37 4 44 0 63 -2 43 -4z m-5275 -230 c-7 -2 -21 -2 -30 0 -10 3
-4 5 12 5 17 0 24 -2 18 -5z m-336 -925 c-3 -8 -6 -5 -6 6 -1 11 2 17 5 13 3
-3 4 -12 1 -19z m1550 -270 c-3 -8 -6 -5 -6 6 -1 11 2 17 5 13 3 -3 4 -12 1
-19z m1498 -54 c9 -15 12 -23 6 -20 -11 7 -35 46 -28 46 3 0 12 -12 22 -26z
m853 -285 c-3 -8 -7 -3 -11 10 -4 17 -3 21 5 13 5 -5 8 -16 6 -23z m-2571 -91
c-3 -8 -6 -5 -6 6 -1 11 2 17 5 13 3 -3 4 -12 1 -19z m2910 -10 c-3 -8 -6 -5
-6 6 -1 11 2 17 5 13 3 -3 4 -12 1 -19z m6827 -4 c3 -8 2 -12 -4 -9 -6 3 -10
10 -10 16 0 14 7 11 14 -7z m-7555 -34 c0 -10 -3 -8 -9 5 -12 27 -12 43 0 25
5 -8 9 -22 9 -30z m6364 -50 c3 -11 1 -18 -4 -14 -5 3 -9 12 -9 20 0 20 7 17
13 -6z m-56 -22 c-3 -8 -6 -5 -6 6 -1 11 2 17 5 13 3 -3 4 -12 1 -19z m-3569
-13 c-3 -3 -9 2 -12 12 -6 14 -5 15 5 6 7 -7 10 -15 7 -18z m-378 5 c0 -5 -2
-10 -4 -10 -3 0 -8 5 -11 10 -3 6 -1 10 4 10 6 0 11 -4 11 -10z m-1933 -32
c-3 -8 -6 -5 -6 6 -1 11 2 17 5 13 3 -3 4 -12 1 -19z m2497 -74 c5 -14 4 -15
-9 -4 -17 14 -19 20 -6 20 5 0 12 -7 15 -16z m-335 -28 c-3 -3 -11 5 -18 17
-13 21 -12 21 5 5 10 -10 16 -20 13 -22z m-3256 7 c-7 -2 -19 -2 -25 0 -7 3
-2 5 12 5 14 0 19 -2 13 -5z m-1308 -12 c3 -5 2 -12 -3 -15 -5 -3 -9 1 -9 9 0
17 3 19 12 6z m-838 -53 c-3 -8 -6 -5 -6 6 -1 11 2 17 5 13 3 -3 4 -12 1 -19z
m-386 -51 c-10 -9 -11 -8 -5 6 3 10 9 15 12 12 3 -3 0 -11 -7 -18z m196 -19
c-3 -8 -6 -5 -6 6 -1 11 2 17 5 13 3 -3 4 -12 1 -19z m1314 -25 c-12 -20 -14
-14 -5 12 4 9 9 14 11 11 3 -2 0 -13 -6 -23z m7876 5 c-3 -8 -6 -5 -6 6 -1 11
2 17 5 13 3 -3 4 -12 1 -19z m-9330 -10 c-3 -8 -6 -5 -6 6 -1 11 2 17 5 13 3
-3 4 -12 1 -19z m-190 -20 c-3 -8 -6 -5 -6 6 -1 11 2 17 5 13 3 -3 4 -12 1
-19z m890 -30 c-3 -7 -5 -2 -5 12 0 14 2 19 5 13 2 -7 2 -19 0 -25z m-810 -10
c-3 -8 -6 -5 -6 6 -1 11 2 17 5 13 3 -3 4 -12 1 -19z m403 8 c0 -3 -4 -8 -10
-11 -5 -3 -10 -1 -10 4 0 6 5 11 10 11 6 0 10 -2 10 -4z m357 -28 c-3 -7 -5
-2 -5 12 0 14 2 19 5 13 2 -7 2 -19 0 -25z m-620 0 c-3 -8 -6 -5 -6 6 -1 11 2
17 5 13 3 -3 4 -12 1 -19z m810 -10 c-3 -7 -5 -2 -5 12 0 14 2 19 5 13 2 -7 2
-19 0 -25z m3310 0 c-3 -7 -5 -2 -5 12 0 14 2 19 5 13 2 -7 2 -19 0 -25z
m5233 22 c0 -5 -2 -10 -4 -10 -3 0 -8 5 -11 10 -3 6 -1 10 4 10 6 0 11 -4 11
-10z m-320 -25 c14 -19 14 -19 -2 -6 -10 7 -18 18 -18 24 0 6 1 8 3 6 1 -2 9
-13 17 -24z m187 -7 c-3 -8 -6 -5 -6 6 -1 11 2 17 5 13 3 -3 4 -12 1 -19z
m-8893 -23 c3 -8 1 -15 -4 -15 -6 0 -10 7 -10 15 0 8 2 15 4 15 2 0 6 -7 10
-15z m-157 -37 c-3 -8 -6 -5 -6 6 -1 11 2 17 5 13 3 -3 4 -12 1 -19z m9430
-20 c-3 -7 -5 -2 -5 12 0 14 2 19 5 13 2 -7 2 -19 0 -25z m-140 -20 c-3 -8 -6
-5 -6 6 -1 11 2 17 5 13 3 -3 4 -12 1 -19z m-9720 -10 c-3 -8 -6 -5 -6 6 -1
11 2 17 5 13 3 -3 4 -12 1 -19z m1083 7 c0 -8 -2 -15 -4 -15 -2 0 -6 7 -10 15
-3 8 -1 15 4 15 6 0 10 -7 10 -15z m8903 -10 c-3 -9 -8 -14 -10 -11 -3 3 -2 9
2 15 9 16 15 13 8 -4z m-9856 -17 c-3 -8 -6 -5 -6 6 -1 11 2 17 5 13 3 -3 4
-12 1 -19z m9770 0 c-3 -8 -6 -5 -6 6 -1 11 2 17 5 13 3 -3 4 -12 1 -19z
m-2036 -45 c-4 -28 -6 -32 -9 -15 -3 22 3 52 11 52 1 0 1 -17 -2 -37z m-7964
-5 c-3 -8 -6 -5 -6 6 -1 11 2 17 5 13 3 -3 4 -12 1 -19z m274 -11 c-10 -9 -11
-8 -5 6 3 10 9 15 12 12 3 -3 0 -11 -7 -18z m631 1 c-7 -7 -12 -8 -12 -2 0 14
12 26 19 19 2 -3 -1 -11 -7 -17z m1115 16 c-3 -3 -12 -4 -19 -1 -8 3 -5 6 6 6
11 1 17 -2 13 -5z m3163 -18 c0 -3 -4 -8 -10 -11 -5 -3 -10 -1 -10 4 0 6 5 11
10 11 6 0 10 -2 10 -4z m-5603 -98 c-3 -8 -6 -5 -6 6 -1 11 2 17 5 13 3 -3 4
-12 1 -19z m8478 12 c3 -5 1 -10 -4 -10 -6 0 -11 5 -11 10 0 6 2 10 4 10 3 0
8 -4 11 -10z m-195 -46 c0 -8 -4 -12 -10 -9 -5 3 -10 10 -10 16 0 5 5 9 10 9
6 0 10 -7 10 -16z m-6797 -9 c-3 -9 -8 -14 -10 -11 -3 3 -2 9 2 15 9 16 15 13
8 -4z m-1298 -15 c3 -5 1 -10 -4 -10 -6 0 -11 5 -11 10 0 6 2 10 4 10 3 0 8
-4 11 -10z m15 -75 c0 -19 -3 -36 -7 -38 -5 -3 -8 14 -8 38 0 24 3 41 8 38 4
-2 7 -19 7 -38z m7847 3 c-3 -7 -5 -2 -5 12 0 14 2 19 5 13 2 -7 2 -19 0 -25z
m-7746 -9 c-5 -13 -10 -19 -10 -12 -1 15 10 45 15 40 3 -2 0 -15 -5 -28z
m8146 9 c-3 -8 -6 -5 -6 6 -1 11 2 17 5 13 3 -3 4 -12 1 -19z m-8440 -20 c-3
-8 -6 -5 -6 6 -1 11 2 17 5 13 3 -3 4 -12 1 -19z m220 -10 c-3 -8 -6 -5 -6 6
-1 11 2 17 5 13 3 -3 4 -12 1 -19z m23 -18 c0 -5 -5 -10 -11 -10 -5 0 -7 5 -4
10 3 6 8 10 11 10 2 0 4 -4 4 -10z m1187 -27 c-3 -10 -5 -4 -5 12 0 17 2 24 5
18 2 -7 2 -21 0 -30z m-906 -10 c13 -17 13 -17 -6 -3 -11 8 -22 16 -24 17 -2
2 0 3 6 3 6 0 17 -8 24 -17z m8026 -25 c-3 -8 -6 -5 -6 6 -1 11 2 17 5 13 3
-3 4 -12 1 -19z m-6806 -61 c-10 -9 -11 -8 -5 6 3 10 9 15 12 12 3 -3 0 -11
-7 -18z m5773 -17 c10 -13 9 -13 -6 -1 -10 7 -18 21 -17 30 0 13 1 14 6 1 3
-8 11 -22 17 -30z m460 -19 c-7 -9 -24 13 -24 32 0 21 1 21 13 -3 8 -14 12
-27 11 -29z m691 29 c3 -5 1 -10 -4 -10 -6 0 -11 5 -11 10 0 6 2 10 4 10 3 0
8 -4 11 -10z m-6715 -35 c7 -9 8 -15 2 -15 -5 0 -12 7 -16 15 -3 8 -4 15 -2
15 2 0 9 -7 16 -15z m6157 -27 c-3 -7 -5 -2 -5 12 0 14 2 19 5 13 2 -7 2 -19
0 -25z m-613 6 c5 -14 4 -15 -9 -4 -17 14 -19 20 -6 20 5 0 12 -7 15 -16z
m1364 -50 c-3 -14 -5 -12 -10 9 -3 19 -2 25 4 19 6 -6 8 -18 6 -28z m-438 -39
c0 -5 -5 -3 -10 5 -5 8 -10 20 -10 25 0 6 5 3 10 -5 5 -8 10 -19 10 -25z
m-8743 -37 c-3 -7 -5 -2 -5 12 0 14 2 19 5 13 2 -7 2 -19 0 -25z m123 22 c0
-5 -2 -10 -4 -10 -3 0 -8 5 -11 10 -3 6 -1 10 4 10 6 0 11 -4 11 -10z m55 1
c3 -5 1 -12 -5 -16 -5 -3 -10 1 -10 9 0 18 6 21 15 7z m2022 -43 c-3 -8 -6 -5
-6 6 -1 11 2 17 5 13 3 -3 4 -12 1 -19z m6554 -11 c-10 -9 -11 -8 -5 6 3 10 9
15 12 12 3 -3 0 -11 -7 -18z m-724 -9 c-3 -8 -6 -5 -6 6 -1 11 2 17 5 13 3 -3
4 -12 1 -19z m865 -10 c-8 -8 -9 -4 -5 13 4 13 8 18 11 10 2 -7 -1 -18 -6 -23z
m953 2 c3 -6 -1 -7 -9 -4 -18 7 -21 14 -7 14 6 0 13 -4 16 -10z m-9708 -32
c-3 -7 -5 -2 -5 12 0 14 2 19 5 13 2 -7 2 -19 0 -25z m-69 -33 c-3 -3 -9 2
-12 12 -6 14 -5 15 5 6 7 -7 10 -15 7 -18z m-78 5 c0 -5 -5 -10 -11 -10 -5 0
-7 5 -4 10 3 6 8 10 11 10 2 0 4 -4 4 -10z m611 -8 c-7 -2 -18 1 -23 6 -8 8
-4 9 13 5 13 -4 18 -8 10 -11z m8350 -5 c-10 -9 -11 -8 -5 6 3 10 9 15 12 12
3 -3 0 -11 -7 -18z m-2557 -3 c3 -8 2 -12 -4 -9 -6 3 -10 10 -10 16 0 14 7 11
14 -7z m1330 0 c3 -8 2 -12 -4 -9 -6 3 -10 10 -10 16 0 14 7 11 14 -7z m-5913
-38 c-14 -36 -22 -33 -9 5 6 16 12 28 14 26 3 -2 0 -16 -5 -31z m5899 -11 c0
-5 -5 -3 -10 5 -5 8 -10 20 -10 25 0 6 5 3 10 -5 5 -8 10 -19 10 -25z m877
-27 c-3 -8 -6 -5 -6 6 -1 11 2 17 5 13 3 -3 4 -12 1 -19z m-487 -18 c0 -5 -2
-10 -4 -10 -3 0 -8 5 -11 10 -3 6 -1 10 4 10 6 0 11 -4 11 -10z m-8220 -55
c11 -13 10 -14 -4 -9 -9 3 -16 10 -16 15 0 13 6 11 20 -6z m13455 -25 c3 -5 1
-10 -4 -10 -6 0 -11 5 -11 10 0 6 2 10 4 10 3 0 8 -4 11 -10z m-10855 -20 c0
-5 -5 -10 -11 -10 -5 0 -7 5 -4 10 3 6 8 10 11 10 2 0 4 -4 4 -10z m5034 -71
c3 -3 -4 -5 -14 -6 -11 -1 -22 2 -25 8 -6 9 30 7 39 -2z m-7439 -29 c10 -11
16 -20 13 -20 -3 0 -13 9 -23 20 -10 11 -16 20 -13 20 3 0 13 -9 23 -20z
m13090 -16 c9 -15 12 -23 6 -20 -11 7 -35 46 -28 46 3 0 12 -12 22 -26z
m-9278 -20 c-3 -3 -12 -4 -19 -1 -8 3 -5 6 6 6 11 1 17 -2 13 -5z m40 -50 c-3
-3 -12 -4 -19 -1 -8 3 -5 6 6 6 11 1 17 -2 13 -5z m-4099 -29 c-3 -3 -9 2 -12
12 -6 14 -5 15 5 6 7 -7 10 -15 7 -18z m1429 -11 c-3 -3 -12 -4 -19 -1 -8 3
-5 6 6 6 11 1 17 -2 13 -5z m1218 -24 c-3 -5 -11 -10 -16 -10 -6 0 -7 5 -4 10
3 6 11 10 16 10 6 0 7 -4 4 -10z m3102 -106 c-3 -3 -12 -4 -19 -1 -8 3 -5 6 6
6 11 1 17 -2 13 -5z m-44 -29 c-3 -9 -8 -14 -10 -11 -3 3 -2 9 2 15 9 16 15
13 8 -4z m3548 -92 c13 -16 12 -17 -3 -4 -10 7 -18 15 -18 17 0 8 8 3 21 -13z
m-6724 -9 c-3 -3 -12 -4 -19 -1 -8 3 -5 6 6 6 11 1 17 -2 13 -5z m3198 -24
c-3 -5 -11 -10 -16 -10 -6 0 -7 5 -4 10 3 6 11 10 16 10 6 0 7 -4 4 -10z m5
-94 c0 -3 -4 -8 -10 -11 -5 -3 -10 -1 -10 4 0 6 5 11 10 11 6 0 10 -2 10 -4z
m-5922 -121 c-3 -3 -9 2 -12 12 -6 14 -5 15 5 6 7 -7 10 -15 7 -18z m9787 7
c-3 -3 -11 0 -18 7 -9 10 -8 11 6 5 10 -3 15 -9 12 -12z m-7235 -37 c-7 -9
-15 -13 -19 -10 -3 3 1 10 9 15 21 14 24 12 10 -5z m3657 -81 c-3 -3 -12 -4
-19 -1 -8 3 -5 6 6 6 11 1 17 -2 13 -5z m-1816 -107 c-10 -9 -11 -8 -5 6 3 10
9 15 12 12 3 -3 0 -11 -7 -18z m-1714 7 c-3 -3 -12 -4 -19 -1 -8 3 -5 6 6 6
11 1 17 -2 13 -5z m3533 -44 c0 -5 -5 -10 -11 -10 -5 0 -7 5 -4 10 3 6 8 10
11 10 2 0 4 -4 4 -10z m67 -36 c-3 -3 -12 -4 -19 -1 -8 3 -5 6 6 6 11 1 17 -2
13 -5z m-57 -28 c0 -2 -9 -6 -20 -9 -11 -3 -20 -1 -20 4 0 5 9 9 20 9 11 0 20
-2 20 -4z m40 0 c0 -2 -7 -7 -16 -10 -8 -3 -12 -2 -9 4 6 10 25 14 25 6z
m-2389 -39 c-10 -9 -11 -8 -5 6 3 10 9 15 12 12 3 -3 0 -11 -7 -18z m2399 -1
c0 -3 -4 -8 -10 -11 -5 -3 -10 -1 -10 4 0 6 5 11 10 11 6 0 10 -2 10 -4z
m3225 -26 c3 -6 -1 -7 -9 -4 -18 7 -21 14 -7 14 6 0 13 -4 16 -10z m-5035 -30
c-20 -13 -33 -13 -25 0 3 6 14 10 23 10 15 0 15 -2 2 -10z m1887 -6 c-3 -3
-12 -4 -19 -1 -8 3 -5 6 6 6 11 1 17 -2 13 -5z m-3658 -17 c-2 -1 -13 -9 -24
-17 -19 -14 -19 -14 -6 3 7 9 18 17 24 17 6 0 8 -1 6 -3z m1691 -12 c0 -12
-19 -12 -23 0 -4 9 -1 12 9 8 7 -3 14 -7 14 -8z m1953 -2 c-7 -2 -19 -2 -25 0
-7 3 -2 5 12 5 14 0 19 -2 13 -5z m-1913 -23 c8 -5 11 -10 5 -10 -5 0 -17 5
-25 10 -8 5 -10 10 -5 10 6 0 17 -5 25 -10z m20 -70 c0 -5 -4 -10 -10 -10 -5
0 -10 5 -10 10 0 6 5 10 10 10 6 0 10 -4 10 -10z m8216 -16 c10 -8 13 -12 6
-9 -8 4 -26 11 -40 15 -22 7 -23 8 -6 9 11 1 29 -6 40 -15z m-8016 2 c0 -2 -7
-7 -16 -10 -8 -3 -12 -2 -9 4 6 10 25 14 25 6z m8157 -72 c-3 -3 -12 -4 -19
-1 -8 3 -5 6 6 6 11 1 17 -2 13 -5z m-6407 -48 c0 -2 -7 -9 -15 -16 -13 -11
-14 -10 -9 4 5 14 24 23 24 12z m55 -36 c-3 -5 -12 -10 -18 -10 -7 0 -6 4 3
10 19 12 23 12 15 0z m6488 3 c-7 -2 -19 -2 -25 0 -7 3 -2 5 12 5 14 0 19 -2
13 -5z m-3393 -87 c0 -2 -8 -10 -17 -17 -16 -13 -17 -12 -4 4 13 16 21 21 21
13z m3417 -32 c-3 -3 -12 -4 -19 -1 -8 3 -5 6 6 6 11 1 17 -2 13 -5z m-8432
-14 c3 -5 -1 -10 -10 -10 -9 0 -13 5 -10 10 3 6 8 10 10 10 2 0 7 -4 10 -10z
m5135 -30 c0 -5 -5 -10 -11 -10 -5 0 -7 5 -4 10 3 6 8 10 11 10 2 0 4 -4 4
-10z m-7175 -55 c-16 -13 -34 -24 -39 -25 -6 0 5 11 24 25 44 32 54 32 15 0z
m55 5 c0 -5 -5 -10 -11 -10 -5 0 -7 5 -4 10 3 6 8 10 11 10 2 0 4 -4 4 -10z
m4054 2 c3 -5 -1 -9 -9 -9 -8 0 -12 4 -9 9 3 4 7 8 9 8 2 0 6 -4 9 -8z m-19
-51 c3 -5 2 -12 -3 -15 -5 -3 -9 1 -9 9 0 17 3 19 12 6z m4845 -1 c0 -5 -2
-10 -4 -10 -3 0 -8 5 -11 10 -3 6 -1 10 4 10 6 0 11 -4 11 -10z m-8924 -92 c4
-6 -2 -7 -17 -3 -35 10 -45 23 -15 18 15 -3 29 -10 32 -15z m1974 -38 c0 -5
-5 -10 -11 -10 -5 0 -7 5 -4 10 3 6 8 10 11 10 2 0 4 -4 4 -10z m5380 0 c0 -5
-5 -10 -11 -10 -5 0 -7 5 -4 10 3 6 8 10 11 10 2 0 4 -4 4 -10z m-3227 -74
c-3 -4 -9 -2 -14 5 -13 22 -11 31 5 17 8 -7 12 -17 9 -22z m90 -13 c-7 -2 -19
-2 -25 0 -7 3 -2 5 12 5 14 0 19 -2 13 -5z m4977 -14 c0 -6 -4 -7 -10 -4 -5 3
-10 11 -10 16 0 6 5 7 10 4 6 -3 10 -11 10 -16z m-4943 -65 c-3 -3 -12 -4 -19
-1 -8 3 -5 6 6 6 11 1 17 -2 13 -5z m6900 0 c-3 -3 -12 -4 -19 -1 -8 3 -5 6 6
6 11 1 17 -2 13 -5z m-3360 -80 c-3 -3 -12 -4 -19 -1 -8 3 -5 6 6 6 11 1 17
-2 13 -5z m-8157 -14 c0 -5 -4 -10 -10 -10 -5 0 -10 5 -10 10 0 6 5 10 10 10
6 0 10 -4 10 -10z m105 0 c3 -5 1 -10 -4 -10 -6 0 -11 5 -11 10 0 6 2 10 4 10
3 0 8 -4 11 -10z m8035 -14 c0 -2 -7 -6 -15 -10 -8 -3 -15 -1 -15 4 0 6 7 10
15 10 8 0 15 -2 15 -4z m10 -86 c0 -5 -2 -10 -4 -10 -3 0 -8 5 -11 10 -3 6 -1
10 4 10 6 0 11 -4 11 -10z m70 -36 c0 -2 -9 -4 -20 -4 -11 0 -20 4 -20 9 0 5
9 7 20 4 11 -3 20 -7 20 -9z m1860 -64 c0 -5 -2 -10 -4 -10 -3 0 -8 5 -11 10
-3 6 -1 10 4 10 6 0 11 -4 11 -10z m-9803 -36 c-3 -3 -12 -4 -19 -1 -8 3 -5 6
6 6 11 1 17 -2 13 -5z m8058 -44 c3 -5 1 -10 -4 -10 -6 0 -11 5 -11 10 0 6 2
10 4 10 3 0 8 -4 11 -10z m-60 -10 c3 -6 -1 -7 -9 -4 -18 7 -21 14 -7 14 6 0
13 -4 16 -10z m-5195 -20 c0 -5 -2 -10 -4 -10 -3 0 -8 5 -11 10 -3 6 -1 10 4
10 6 0 11 -4 11 -10z m-650 -15 c-7 -9 -15 -13 -19 -10 -3 3 1 10 9 15 21 14
24 12 10 -5z m-2003 -81 c-3 -3 -12 -4 -19 -1 -8 3 -5 6 6 6 11 1 17 -2 13 -5z
m-240 -20 c-3 -3 -12 -4 -19 -1 -8 3 -5 6 6 6 11 1 17 -2 13 -5z m-87 -28 c0
-3 -4 -8 -10 -11 -5 -3 -10 -1 -10 4 0 6 5 11 10 11 6 0 10 -2 10 -4z m80 -4
c0 -4 -9 -8 -19 -8 -11 0 -17 4 -15 8 3 4 12 8 20 8 8 0 14 -4 14 -8z m-10
-37 c0 -2 -9 -9 -20 -15 -16 -9 -18 -8 -14 5 5 13 34 22 34 10z m2210 -15 c0
-5 -5 -10 -11 -10 -5 0 -7 5 -4 10 3 6 8 10 11 10 2 0 4 -4 4 -10z m287 4 c-3
-3 -12 -4 -19 -1 -8 3 -5 6 6 6 11 1 17 -2 13 -5z m5888 -4 c13 -6 15 -9 5 -9
-8 0 -22 4 -30 9 -18 12 -2 12 25 0z m-5950 -10 c3 -6 -1 -7 -9 -4 -18 7 -21
14 -7 14 6 0 13 -4 16 -10z m5989 -18 c3 -5 -1 -9 -9 -9 -8 0 -12 4 -9 9 3 4
7 8 9 8 2 0 6 -4 9 -8z m217 -99 c-12 -20 -14 -14 -5 12 4 9 9 14 11 11 3 -2
0 -13 -6 -23z m-6194 -19 c-3 -3 -12 -4 -19 -1 -8 3 -5 6 6 6 11 1 17 -2 13
-5z m2273 -14 c0 -5 -5 -10 -11 -10 -5 0 -7 5 -4 10 3 6 8 10 11 10 2 0 4 -4
4 -10z m-10 -40 c0 -5 -4 -10 -10 -10 -5 0 -10 5 -10 10 0 6 5 10 10 10 6 0
10 -4 10 -10z m-2370 -21 c0 -6 -4 -7 -10 -4 -5 3 -10 11 -10 16 0 6 5 7 10 4
6 -3 10 -11 10 -16z m2510 17 c0 -2 -11 -6 -25 -8 -13 -3 -22 -1 -19 3 5 9 44
13 44 5z m-4755 -16 c3 -5 1 -10 -4 -10 -6 0 -11 5 -11 10 0 6 2 10 4 10 3 0
8 -4 11 -10z m4683 -55 c-3 -3 -9 2 -12 12 -6 14 -5 15 5 6 7 -7 10 -15 7 -18z
m3869 -1 c-3 -3 -12 -4 -19 -1 -8 3 -5 6 6 6 11 1 17 -2 13 -5z m-72 -52 c-3
-3 -11 0 -18 7 -9 10 -8 11 6 5 10 -3 15 -9 12 -12z m-6255 -2 c0 -5 -8 -10
-17 -10 -15 0 -16 2 -3 10 19 12 20 12 20 0z m50 -30 c-8 -5 -17 -6 -20 -3 -3
3 1 8 8 10 6 3 9 10 6 16 -4 7 -1 7 7 -1 12 -11 12 -14 -1 -22z m6527 4 c-3
-3 -12 -4 -19 -1 -8 3 -5 6 6 6 11 1 17 -2 13 -5z m-3997 -43 c0 -5 -7 -12
-16 -15 -14 -5 -15 -4 -4 9 14 17 20 19 20 6z m4170 -6 c11 -13 10 -14 -4 -9
-9 3 -16 10 -16 15 0 13 6 11 20 -6z m-6745 -5 c3 -5 1 -10 -4 -10 -6 0 -11 5
-11 10 0 6 2 10 4 10 3 0 8 -4 11 -10z m4505 -10 c0 -5 -2 -10 -4 -10 -3 0 -8
5 -11 10 -3 6 -1 10 4 10 6 0 11 -4 11 -10z m-1830 -30 c0 -5 -5 -10 -11 -10
-5 0 -7 5 -4 10 3 6 8 10 11 10 2 0 4 -4 4 -10z m-2665 -18 c-3 -3 -11 0 -18
7 -9 10 -8 11 6 5 10 -3 15 -9 12 -12z m2505 8 c0 -5 -2 -10 -4 -10 -3 0 -8 5
-11 10 -3 6 -1 10 4 10 6 0 11 -4 11 -10z m157 -30 c1 -11 -2 -18 -8 -15 -11
7 -12 35 -1 35 4 0 8 -9 9 -20z m-5172 -10 c-3 -5 -12 -10 -18 -10 -7 0 -6 4
3 10 19 12 23 12 15 0z m2632 -6 c-3 -3 -12 -4 -19 -1 -8 3 -5 6 6 6 11 1 17
-2 13 -5z m4353 -4 c0 -5 -2 -10 -4 -10 -3 0 -8 5 -11 10 -3 6 -1 10 4 10 6 0
11 -4 11 -10z m90 6 c0 -2 -8 -10 -17 -17 -16 -13 -17 -12 -4 4 13 16 21 21
21 13z m-6860 -30 c-7 -7 -13 -7 -20 0 -6 6 -3 10 10 10 13 0 16 -4 10 -10z
m-175 -26 c-3 -5 -12 -10 -18 -10 -7 0 -6 4 3 10 19 12 23 12 15 0z m85 0 c0
-5 -4 -10 -9 -10 -6 0 -13 5 -16 10 -3 6 1 10 9 10 9 0 16 -4 16 -10z m6910
-4 c0 -2 -7 -7 -16 -10 -8 -3 -12 -2 -9 4 6 10 25 14 25 6z m-6900 -36 c0 -5
-2 -10 -4 -10 -3 0 -8 5 -11 10 -3 6 -1 10 4 10 6 0 11 -4 11 -10z m2350 6 c0
-3 -4 -8 -10 -11 -5 -3 -10 -1 -10 4 0 6 5 11 10 11 6 0 10 -2 10 -4z m6757
-12 c-3 -3 -12 -4 -19 -1 -8 3 -5 6 6 6 11 1 17 -2 13 -5z"/>
<path d="M4400 8812 c0 -6 -22 -12 -53 -14 l-53 -3 8 -31 c7 -28 11 -31 50
-30 42 1 43 2 49 41 4 22 5 42 3 44 -2 2 -4 -1 -4 -7z"/>
<path d="M750 8769 c0 -5 5 -7 10 -4 6 3 10 8 10 11 0 2 -4 4 -10 4 -5 0 -10
-5 -10 -11z"/>
<path d="M4462 8759 c-24 -9 -22 -29 3 -29 7 0 15 -4 17 -9 2 -4 23 -5 48 -1
37 6 39 8 14 9 -23 1 -33 7 -37 21 -6 22 -11 23 -45 9z"/>
<path d="M4560 8760 c0 -5 7 -10 15 -10 8 0 15 5 15 10 0 6 -7 10 -15 10 -8 0
-15 -4 -15 -10z"/>
<path d="M771 8737 c-13 -12 -25 -17 -27 -12 -5 13 -134 13 -134 0 2 -44 33
-95 45 -75 3 5 20 10 37 10 20 0 29 4 25 13 -2 6 -1 21 4 32 7 19 8 19 8 -2 1
-25 21 -32 21 -8 0 8 5 15 10 15 6 0 10 -7 10 -15 0 -8 7 -15 15 -15 18 0 20
36 3 43 -10 4 -9 8 2 16 8 5 12 12 9 15 -3 3 -16 -5 -28 -17z"/>
<path d="M969 8738 c0 -13 -3 -17 -6 -10 -6 15 -35 16 -51 0 -7 -7 -31 -11
-54 -11 -24 1 -34 -1 -23 -4 11 -3 30 -16 43 -29 24 -25 42 -31 42 -14 0 6 26
10 59 10 58 0 90 14 54 23 -11 3 -6 5 11 6 28 1 28 0 13 -17 -10 -10 -17 -21
-17 -23 0 -3 29 -6 65 -6 54 -1 65 1 70 17 3 10 0 28 -7 39 -13 21 -28 28 -28
13 0 -5 -10 -14 -22 -21 -13 -6 -15 -9 -5 -7 9 3 17 1 17 -4 0 -24 -38 -8 -85
37 -10 10 -14 10 -18 -1 -7 -18 -47 -28 -47 -12 0 7 5 17 12 24 9 9 8 12 -5
12 -11 0 -17 -8 -18 -22z m194 -32 c6 -14 -1 -26 -14 -26 -4 0 -7 9 -6 20 1
23 12 26 20 6z m-182 -14 c-7 -2 -18 1 -23 6 -8 8 -4 9 13 5 13 -4 18 -8 10
-11z m137 -19 c-10 -2 -26 -2 -35 0 -10 3 -2 5 17 5 19 0 27 -2 18 -5z"/>
<path d="M540 8709 c0 -5 5 -7 10 -4 6 3 10 8 10 11 0 2 -4 4 -10 4 -5 0 -10
-5 -10 -11z"/>
<path d="M3825 8670 c-3 -5 -1 -10 4 -10 6 0 11 5 11 10 0 6 -2 10 -4 10 -3 0
-8 -4 -11 -10z"/>
<path d="M3860 8669 c0 -5 5 -7 10 -4 6 3 10 8 10 11 0 2 -4 4 -10 4 -5 0 -10
-5 -10 -11z"/>
<path d="M6497 8576 c-64 -21 -116 -59 -117 -83 0 -7 8 -13 18 -14 13 0 12 -2
-5 -9 -14 -6 -23 -18 -23 -31 0 -21 3 -21 61 -15 33 4 72 11 86 17 13 5 39 9
58 9 18 0 41 7 49 16 9 8 16 11 16 6 0 -19 105 1 113 22 3 6 -4 23 -15 36
l-21 25 8 -33 7 -34 -31 32 c-26 28 -35 32 -62 26 -27 -5 -31 -3 -27 12 4 13
-3 22 -23 29 -22 9 -41 6 -92 -11z"/>
</g>
</svg>
